# xmcd
#
# Track frame offsets:
#	150
#	19702
#	35715
#	61083
#	84768
#	111807
#	129543
#	150306
#	170057
#	192684
#	209610
#	229702
#	241381
#	261081
#	280703
#
# Disc length: 4120 seconds
#
# Revision: 1
# Processed by: cddbd v1.5.1PL2 Copyright (c) Steve Scherf et al.
# Submitted via: EasyCDDAExtractor 5.0.7
#
DISCID=ca10160f
DTITLE=Various Artist - A tribute to Nicolette Larson - Lotta Love Concert
DYEAR=2006
DGENRE=Pop
TTITLE0=Ensemble - Lotta love
TTITLE1=Dan Frogelberg - Part Of The Plan
TTITLE2=Joe Walsh - Rocky Mountain Way
TTITLE3=Little Feat and Bonnie Raitt - Cold, Cold, Cold
TTITLE4=Bonnie Raitt - Love Has No Pride
TTITLE5=Mickael Ruff - Wonderful Life
TTITLE6=Carole King - Up On The Roof
TTITLE7=Jackson Browne - For A Dancer
TTITLE8=Jackson Browne - Running On Empty
TTITLE9=Emmylou Harris - Even Cowgirls Get The Blues
TTITLE10=Linda Ronstadt - Blue Bayou
TTITLE11=Crosby, Stills and Nash - In My Life
TTITLE12=Crosby, Stills and Nash - Southern Cross
TTITLE13=Jimmy Buffett - Margaritaville
TTITLE14=Ensemble - You've Got A Friend
EXTD=cse\n
EXTT0=
EXTT1=
EXTT2=
EXTT3=
EXTT4=
EXTT5=
EXTT6=
EXTT7=
EXTT8=
EXTT9=
EXTT10=
EXTT11=
EXTT12=
EXTT13=
EXTT14=
PLAYORDER=
